<svg width="1156" height="144" viewBox="0 0 578 72" fill="none" xmlns="http://www.w3.org/2000/svg">
<path d="M89.3096 0C94.9632 0 99.9543 1.09689 104.283 3.29068C108.7 5.48446 112.145 8.86289 114.618 13.426C117.092 17.9013 118.329 23.6929 118.329 30.8007V71.0786H101.765V32.9068C101.765 26.6764 100.396 22.0256 97.6575 18.9543C94.9191 15.883 90.988 14.3473 85.8644 14.3473C82.2426 14.3473 79.0182 15.1371 76.1914 16.7166C73.453 18.2962 71.2887 20.6216 69.6986 23.6929C68.1968 26.7642 67.446 30.6691 67.446 35.4077V71.0786H50.8826V32.9068C50.8826 26.6764 49.5134 22.0256 46.7749 18.9543C44.0364 15.883 40.1054 14.3473 34.9818 14.3473C31.36 14.3473 28.1356 15.1371 25.3088 16.7166C22.5703 18.2962 20.4061 20.6216 18.816 23.6929C17.3142 26.7642 16.5634 30.6691 16.5634 35.4077V71.0786H0V0.789757H15.7683V19.4808L12.9857 13.9525C15.3708 9.38939 18.816 5.92322 23.3212 3.55393C27.9148 1.18465 33.1267 0 38.957 0C45.5824 0 51.3243 1.6234 56.1829 4.8702C61.1298 8.117 64.3983 13.0311 65.9884 19.6124L59.4956 17.3748C61.7924 12.1097 65.5909 7.89762 70.8912 4.73857C76.1914 1.57952 82.3309 0 89.3096 0Z" fill="#243B56"/>
<path d="M186.134 72C178.272 72 171.381 70.4644 165.463 67.3931C159.632 64.234 155.083 59.9342 151.815 54.4936C148.634 49.053 147.044 42.8665 147.044 35.9342C147.044 28.9141 148.59 22.7276 151.682 17.3748C154.862 11.9342 159.191 7.67824 164.668 4.60695C170.233 1.53565 176.549 0 183.616 0C190.507 0 196.646 1.49177 202.035 4.47531C207.423 7.45886 211.663 11.6709 214.755 17.1115C217.847 22.5521 219.393 28.9579 219.393 36.3291C219.393 37.0311 219.349 37.8208 219.261 38.6984C219.261 39.5759 219.216 40.4095 219.128 41.1993H160.162V30.2742H210.383L203.89 33.6965C203.978 29.66 203.139 26.106 201.372 23.0347C199.605 19.9634 197.176 17.5503 194.084 15.7952C191.081 14.0402 187.591 13.1627 183.616 13.1627C179.553 13.1627 175.975 14.0402 172.883 15.7952C169.88 17.5503 167.495 20.0073 165.728 23.1664C164.049 26.2377 163.21 29.8793 163.21 34.0914V36.724C163.21 40.936 164.182 44.6654 166.125 47.9122C168.069 51.159 170.807 53.66 174.341 55.415C177.874 57.17 181.938 58.0475 186.531 58.0475C190.507 58.0475 194.084 57.4333 197.264 56.2048C200.445 54.9762 203.271 53.0457 205.745 50.4132L214.623 60.5484C211.443 64.234 207.423 67.0859 202.565 69.1042C197.794 71.0347 192.317 72 186.134 72Z" fill="#243B56"/>
<path d="M248.554 71.0786V0.789757H264.322V20.1389L262.467 14.479C264.587 9.7404 267.9 6.14259 272.405 3.68555C276.999 1.22852 282.696 0 289.498 0V15.6636C288.792 15.4881 288.129 15.4004 287.511 15.4004C286.892 15.3126 286.274 15.2687 285.656 15.2687C279.384 15.2687 274.393 17.1115 270.682 20.7971C266.972 24.3949 265.117 29.7916 265.117 36.9872V71.0786H248.554Z" fill="#243B56"/>
<path d="M347.955 72C340.711 72 334.262 70.4644 328.609 67.3931C322.955 64.234 318.494 59.9342 315.225 54.4936C311.957 49.053 310.323 42.8665 310.323 35.9342C310.323 28.9141 311.957 22.7276 315.225 17.3748C318.494 11.9342 322.955 7.67824 328.609 4.60695C334.262 1.53565 340.711 0 347.955 0C355.287 0 361.78 1.53565 367.433 4.60695C373.175 7.67824 377.636 11.8903 380.816 17.2431C384.085 22.596 385.719 28.8263 385.719 35.9342C385.719 42.8665 384.085 49.053 380.816 54.4936C377.636 59.9342 373.175 64.234 367.433 67.3931C361.78 70.4644 355.287 72 347.955 72ZM347.955 57.9159C352.018 57.9159 355.64 57.0384 358.82 55.2834C362 53.5283 364.474 50.9835 366.241 47.649C368.096 44.3144 369.023 40.4095 369.023 35.9342C369.023 31.3711 368.096 27.4662 366.241 24.2194C364.474 20.8848 362 18.34 358.82 16.585C355.64 14.83 352.062 13.9525 348.087 13.9525C344.024 13.9525 340.402 14.83 337.222 16.585C334.13 18.34 331.656 20.8848 329.801 24.2194C327.946 27.4662 327.019 31.3711 327.019 35.9342C327.019 40.4095 327.946 44.3144 329.801 47.649C331.656 50.9835 334.13 53.5283 337.222 55.2834C340.402 57.0384 343.979 57.9159 347.955 57.9159Z" fill="#243B56"/>
<path d="M454.958 0C460.612 0 465.647 1.09689 470.064 3.29068C474.569 5.48446 478.103 8.86289 480.664 13.426C483.226 17.9013 484.507 23.6929 484.507 30.8007V71.0786H467.944V32.9068C467.944 26.6764 466.442 22.0256 463.438 18.9543C460.523 15.883 456.416 14.3473 451.115 14.3473C447.229 14.3473 443.783 15.1371 440.78 16.7166C437.776 18.2962 435.435 20.6654 433.757 23.8245C432.167 26.8958 431.372 30.8007 431.372 35.5393V71.0786H414.808V0.789757H430.577V19.7441L427.794 13.9525C430.268 9.47714 433.845 6.05484 438.527 3.68555C443.297 1.22852 448.774 0 454.958 0Z" fill="#243B56"/>
<path d="M562.364 71.0786V56.8629L561.437 53.8355V28.958C561.437 24.1316 559.979 20.4022 557.064 17.7697C554.149 15.0494 549.732 13.6892 543.813 13.6892C539.838 13.6892 535.907 14.3035 532.02 15.532C528.222 16.7605 524.997 18.4717 522.347 20.6655L515.854 8.68738C519.653 5.79159 524.158 3.64168 529.37 2.23766C534.67 0.745888 540.147 0 545.801 0C556.048 0 563.954 2.45703 569.52 7.37111C575.173 12.1974 578 19.7002 578 29.8793V71.0786H562.364ZM540.103 72C534.803 72 530.165 71.1225 526.19 69.3675C522.215 67.5247 519.123 65.0238 516.914 61.8647C514.794 58.6179 513.734 54.9762 513.734 50.9397C513.734 46.9909 514.662 43.4369 516.517 40.2779C518.46 37.1188 521.596 34.6179 525.925 32.7751C530.253 30.9324 535.995 30.011 543.151 30.011H563.689V40.936H544.343C538.69 40.936 534.891 41.8574 532.948 43.7002C531.004 45.4552 530.032 47.649 530.032 50.2815C530.032 53.2651 531.225 55.6344 533.61 57.3894C535.995 59.1444 539.308 60.0219 543.548 60.0219C547.612 60.0219 551.234 59.1005 554.414 57.2578C557.682 55.415 560.023 52.6947 561.437 49.0969L564.219 58.9689C562.629 63.0932 559.758 66.2962 555.606 68.5777C551.543 70.8592 546.375 72 540.103 72Z" fill="#243B56"/>
</svg>
